<svg width="100%" height="100%" viewBox="0 0 64 64" fill="none" xmlns="http://www.w3.org/2000/svg">
<path fill-rule="evenodd" clip-rule="evenodd" d="M36.0465 12.6394C35.5554 11.2917 18.6608 4.71102 18.4449 5.43353C15.3426 6.24379 14.08 9.82637 11.9459 12.0956L7.20692 11.8237C5.11932 14.5134 4.02389 17.2615 4.76978 20.1178C7.44542 23.7498 10.5514 26.8405 12.4874 31.4027C12.6404 33.5531 21.7765 31.6282 23.7347 31.2025C21.0597 33.1211 18.7301 36.0948 19.7312 44.6595C20.6451 48.6814 21.2702 53.1718 29.3758 57.7207C30.4428 58.3195 32.6506 59.0104 34.0158 59.514C35.3214 60.1141 36.848 60.3606 41.1549 59.0409C43.6472 57.9647 46.3381 57.3163 48.7769 56.2426L45.8455 56.3804C41.8088 56.4684 38.6924 56.7701 37.7311 55.64L34.016 49.2141L36.1818 44.9991C39.1794 45.3071 40.1744 47.7427 42.8165 48.6702L45.9306 46.3588C54.9757 51.7083 58.5743 42.9684 59.6056 36.1614C59.4956 33.3919 53.6206 37.0301 53.9767 35.7351C54.1147 32.758 51.6927 28.863 50.1278 25.8281L51.9389 18.8067C52.7606 18.0734 48.1346 10.2631 44.357 9.28908C41.0425 8.4344 36.0464 12.6394 36.0464 12.6394L36.0465 12.6394Z" fill="#FDEE21"/>
<path fill-rule="evenodd" clip-rule="evenodd" d="M50.9058 27.5617C50.9382 28.3159 50.9346 29.2331 51.0074 29.8052C50.9948 30.2416 50.6683 30.2576 50.3981 30.349L52.1582 30.9949C52.5077 31.5841 52.7885 32.1733 53.0722 32.7625C53.4012 34.2118 53.1557 34.2532 52.9368 34.3601C52.298 34.3666 51.6611 34.3678 51.0666 34.2411C51.3329 34.3819 51.3915 34.4846 51.4197 34.665C51.4717 34.9977 51.2579 35.4519 50.9058 35.8897C51.4264 36.1791 52.3755 36.4622 53.0806 36.731L53.8846 34.9379C53.5205 32.3038 52.4165 29.8761 50.9058 27.5617Z" fill="#C8C037"/>
<path fill-rule="evenodd" clip-rule="evenodd" d="M54.1909 36.3971C55.1671 36.8047 56.5158 36.6852 58.3856 35.7197C58.6637 35.5216 58.9227 35.64 58.4251 35.9659C55.9726 38.1709 54.7987 37.0679 54.1909 36.3971Z" fill="#C8C037"/>
<path fill-rule="evenodd" clip-rule="evenodd" d="M58.5731 35.4307C58.863 35.987 58.6873 36.4394 58.59 36.9093C58.2872 39.2995 57.5438 41.1892 56.0851 43.1638C51.3407 50.8062 46.5508 46.0243 42.7318 42.912L41.1521 46.8779C41.0683 47.2255 40.7195 47.4962 43.1866 48.5845L45.6998 46.8058C55.2845 54.1126 62.0764 36.5785 58.5728 35.4309L58.5731 35.4307Z" fill="#C8C037"/>
<path fill-rule="evenodd" clip-rule="evenodd" d="M43.8877 42.26C43.241 42.3063 41.3166 42.9619 41.2309 43.3416L42.1165 42.0197L43.8877 42.26Z" fill="#C8C037"/>
<path fill-rule="evenodd" clip-rule="evenodd" d="M42.6302 34.1562C42.7487 34.1562 43.3174 34.3092 43.2564 34.2751C43.1692 34.2265 43.2467 35.0742 43.4257 35.5158L42.7317 37.0285C44.0609 35.4927 46.1626 35.5948 48.1137 35.3969L47.1829 34.819C47.3446 34.2786 47.1542 33.8511 47.0644 33.3914L42.6302 34.1562Z" fill="#C8C037"/>
<path fill-rule="evenodd" clip-rule="evenodd" d="M45.8962 29.6016C44.4701 30.0396 43.105 30.7552 42.1886 32.2807C42.8878 29.7663 43.0303 29.8618 43.256 29.7375C44.2339 29.2994 45.0347 29.5725 45.8962 29.6016Z" fill="#C8C037"/>
<path fill-rule="evenodd" clip-rule="evenodd" d="M38.2806 59.0722C36.5561 60.9786 32.7085 58.9279 29.5132 57.8825C21.3937 52.7094 19.8075 47.8396 19.6973 43.0622C19.2798 36.2189 21.3771 32.2426 24.0299 31.3011C22.2742 34.6921 21.4557 40.7792 22.2698 45.3057C22.9269 47.8239 22.9405 52.0712 27.1459 54.3446C29.2052 55.5062 28.6474 56.4105 30.0399 57.4984C31.5659 58.6906 35.8208 59.824 38.2805 59.0722L38.2806 59.0722Z" fill="#FCF6A0"/>
<path fill-rule="evenodd" clip-rule="evenodd" d="M40.8567 27.4461C37.9372 23.298 33.831 21.7409 29.2004 21.5708C30.1284 21.2677 31.0565 21.1099 31.9845 20.6615C32.2117 20.4223 32.1374 20.0013 32.0522 19.5738C27.5949 18.4077 24.7818 16.9665 21.2208 15.6306L30.8342 17.942C37.3261 18.1892 36.7686 19.795 40.8571 27.4463L40.8567 27.4461Z" fill="#FCF6A0"/>
<path fill-rule="evenodd" clip-rule="evenodd" d="M43.9826 25.4459C41.825 22.3599 39.7324 18.6147 36.8919 16.2327C30.0349 13.1318 23.2519 10.8289 15.3024 8.73323L17.8395 5.46436C26.275 7.3936 34.1983 10.622 41.2954 15.9438C42.4962 18.9858 43.2969 22.0317 43.982 25.4455L43.9826 25.4459Z" fill="#FCF6A0"/>
<path fill-rule="evenodd" clip-rule="evenodd" d="M48.3322 19.9928C48.3322 19.9928 47.1226 17.2739 46.5337 16.2357C45.1675 14.7188 44.4768 11.8921 41.6787 10.5602C42.5637 10.7996 43.1693 10.5143 44.9759 12.1553L47.8215 17.5635L48.3322 19.9928Z" fill="#FCF6A0"/>
<path fill-rule="evenodd" clip-rule="evenodd" d="M49.8369 24.7031C50.1158 22.3474 50.6456 18.5688 50.0376 17.0759C48.3463 14.8022 46.6429 12.4521 44.9389 10.2703C44.6567 10.0071 44.4535 9.64996 44.2312 9.37134C46.627 9.99325 49.1273 11.6623 52.4991 18.2514L49.8369 24.7031Z" fill="#FCF6A0"/>
<path fill-rule="evenodd" clip-rule="evenodd" d="M39.7642 24.9812C38.81 24.2287 37.9595 21.5672 36.5135 21.0139C35.175 20.9017 34.6843 20.4798 32.9242 20.8391C33.5626 20.5186 34.1653 20.1085 34.8438 19.889C35.3035 19.7803 35.7346 19.9008 36.1731 19.9614C36.2814 19.9101 36.3524 19.8463 36.3259 19.7499C34.5542 18.6529 30.9197 18.6373 28.4663 18.0111C31.3137 18.1066 34.4642 17.9485 36.6043 18.636C38.3251 20.1661 38.884 23.0476 39.7642 24.9812Z" fill="black"/>
<path fill-rule="evenodd" clip-rule="evenodd" d="M44.9821 12.1465C45.3771 12.1824 47.5031 15.5518 47.6029 16.1124C47.7797 17.338 48.2157 18.7119 48.333 19.9942C47.9828 18.7643 47.6013 17.5346 47.1243 16.3047C46.9848 15.966 46.6322 15.2004 45.6523 14.1175C45.196 13.3542 45.0975 12.7542 44.9822 12.1465L44.9821 12.1465Z" fill="black"/>
<path fill-rule="evenodd" clip-rule="evenodd" d="M52.1862 30.4977H51.2767L52.282 30.7616L52.1862 30.4977Z" fill="black"/>
<path fill-rule="evenodd" clip-rule="evenodd" d="M45.9803 29.5875C45.0657 29.4749 44.1271 29.4599 43.2126 29.6613C42.8398 30.1631 42.8141 30.6734 42.6512 31.145C43.763 29.9172 44.2042 29.8421 45.9803 29.5875Z" fill="black"/>
<path fill-rule="evenodd" clip-rule="evenodd" d="M58.4545 35.9241C57.9456 36.3311 57.8947 36.7142 56.3898 37.1733C55.2923 37.4333 54.6723 36.9925 54.1557 36.4C54.9389 36.6247 55.064 37.2176 57.1641 36.5529L58.4545 35.9241Z" fill="black"/>
<path fill-rule="evenodd" clip-rule="evenodd" d="M53.8934 36.1787C53.5271 37.1879 53.1323 38.2078 52.7341 39.153C51.786 40.267 52.1901 39.6322 50.7709 41.3624C51.225 40.6605 51.8156 39.986 52.1248 39.2549C52.342 38.7735 52.6123 38.2629 52.732 37.8352C52.3557 37.6469 51.5854 37.632 51.481 37.6996C50.2192 38.4452 49.9915 39.2344 49.2476 40.0028C49.7868 39.1392 50.2473 38.1966 50.8724 37.4194C50.9436 37.3185 51.4064 37.299 51.6909 37.2394C51.2488 37.1634 50.4305 37.0043 50.3646 37.0115C49.5414 37.2097 49.0802 37.9281 48.4691 38.4052C48.9146 37.7606 49.325 37.0896 49.8907 36.5356C49.9467 36.4704 51.4758 36.6047 52.2683 36.9215L52.2841 37.2374L52.734 37.4194L53.0725 36.5696L53.8934 36.1787Z" fill="black"/>
<path fill-rule="evenodd" clip-rule="evenodd" d="M43.9081 42.2632C43.705 42.1936 41.911 41.9625 41.911 42.0167C41.2222 42.5079 41.1177 42.9779 41.1325 43.3849C42.2784 42.2554 42.2357 42.2522 43.9081 42.2632Z" fill="black"/>
<path fill-rule="evenodd" clip-rule="evenodd" d="M42.5455 34.1395C42.5455 34.1395 43.84 33.9504 43.8148 34.0715C43.721 34.5215 43.9733 35.6182 44.001 35.4652L43.2732 36.0601C44.7974 35.2923 46.4019 35.4466 48.029 35.3293C48.029 35.3293 46.659 34.9503 46.7427 34.9384C47.0483 34.8949 46.6614 33.5068 46.5566 33.4767C46.8172 33.3883 47.0717 33.3217 47.3351 33.2558C45.3758 32.7421 44.2429 33.0448 42.5454 34.1395L42.5455 34.1395Z" fill="black"/>
<path fill-rule="evenodd" clip-rule="evenodd" d="M53.7495 35.1079L53.4618 35.2523C53.4209 34.4079 52.5157 34.4698 51.7524 34.462L51.1262 34.3091C51.3166 34.4856 51.9052 34.4718 51.6677 34.8529C51.4679 34.96 51.376 35.4191 51.2616 35.8047L50.9231 35.8217C51.521 36.0558 52.0758 36.2611 52.734 36.5355L53.1233 36.595L54.0541 36.0936L53.7495 35.1079Z" fill="black"/>
<path fill-rule="evenodd" clip-rule="evenodd" d="M45.1687 34.5385C45.023 34.2497 44.29 34.2907 44.132 34.4776C44.0036 34.6294 44.124 35.6036 44.2887 35.4393C44.5267 35.2296 44.8376 35.1419 45.2111 35.1588C45.2581 34.9789 45.2415 34.7845 45.1687 34.5385Z" fill="white"/>
<path fill-rule="evenodd" clip-rule="evenodd" d="M52.1983 35.9898C52.2672 35.9393 52.4129 35.4509 52.3659 35.3048C52.2696 34.9599 51.5879 35.0325 51.5879 35.0325C51.4216 35.1305 51.2759 35.6682 51.3366 35.8456C51.3657 35.9957 52.089 36.0436 52.1983 35.9898Z" fill="white"/>
<path fill-rule="evenodd" clip-rule="evenodd" d="M23.0499 52.8423L23.4805 52.8845C26.0332 54.1402 30.2362 56.0022 36.3211 55.0016L37.2758 56.5069C34.5961 57.8116 31.7138 57.5114 29.013 57.6029L23.0499 52.8423Z" fill="black"/>
<path fill-rule="evenodd" clip-rule="evenodd" d="M19.3851 42.9149L20.6638 48.2933C24.0872 50.4374 29.9351 52.8932 34.8096 52.695L33.7324 50.2186C23.5572 48.0536 22.6966 45.3168 19.3853 42.9144L19.3851 42.9149Z" fill="black"/>
<path fill-rule="evenodd" clip-rule="evenodd" d="M22.5671 31.8981C23.192 36.066 24.0263 39.2259 27.6435 41.8727C29.8606 43.4702 32.0614 45.061 34.7381 46.3739C34.7381 46.3739 34.5034 47.5975 34.3073 47.5757C26.3412 46.6891 20.5093 40.0711 19.8028 37.0483C20.487 34.7296 21.4686 33.2813 22.5668 31.8981H22.5671Z" fill="black"/>
<path fill-rule="evenodd" clip-rule="evenodd" d="M26.3962 29.5366C27.4578 34.156 29.9888 38.8346 32.5046 43.079C33.4268 44.2514 33.6682 44.7688 35.0896 45.4826C37.0108 46.0921 38.3694 45.9365 39.7639 45.8449C39.3818 45.1363 39.0422 44.3956 38.6034 43.7297C35.4808 41.2555 36.924 39.0028 37.7534 37.5765C36.0171 37.137 33.7165 36.2027 33.3996 34.9739C32.89 30.9994 33.1488 29.7386 33.6588 27.6971C31.3076 28.1938 28.9251 28.6861 26.3961 29.5366L26.3962 29.5366Z" fill="black"/>
<path fill-rule="evenodd" clip-rule="evenodd" d="M17.7709 5C16.9981 5.5058 16.2536 6.22902 15.4527 7.05103C14.1249 8.42806 13.2423 9.77133 11.8908 10.7672C11.6205 11.0007 10.8619 11.3768 9.90828 11.4326C9.45905 11.455 9.1664 11.5295 8.34094 11.4257C7.61295 11.0307 6.92133 11.2876 6.24634 12.0965C5.50618 13.1629 4.5688 15.188 4.179 16.4628C3.37565 19.7138 5.42381 22.3925 7.38795 24.4569C9.13525 26.1672 10.1426 27.236 10.8601 28.8038C11.4033 29.8208 11.8057 31.2164 12.2413 32.1949C12.3984 32.5051 12.3658 32.5035 12.7886 32.597C13.7017 32.7922 14.9682 32.7937 16.0957 32.8908C16.5836 32.8977 17.2535 32.8795 17.8883 32.8132C18.763 32.6477 19.7907 32.4855 20.652 32.1871C21.4937 31.9794 22.2436 31.6918 22.9196 31.4271C22.8324 31.7235 22.1884 32.0089 21.947 32.3846C19.6556 35.671 19.028 38.5953 19.4269 43.2094C19.6525 45.2545 20.121 46.9499 20.8278 48.8896C21.1513 49.7773 21.8395 51.1831 22.4991 52.117C24.4605 54.8938 28.8485 58.4596 34.9568 59.8322C36.0225 59.9781 37.2319 59.9003 38.3694 59.5968C41.3842 58.6811 47.5286 56.5156 47.5286 56.5156C47.5286 56.5156 42.0744 56.9677 39.5766 56.7202C38.9983 56.6296 38.3611 56.5989 37.9582 56.2041C37.8906 56.1166 37.6451 55.6212 37.8037 55.6168C38.02 55.6107 38.6409 55.3525 39.5995 55.2669C37.5528 55.0461 37.582 55.0487 37.4326 54.6752C37.2003 54.0953 36.8447 53.3028 36.4785 52.6093C37.3779 52.6854 39.3691 52.7973 40.0449 52.0986C40.0449 52.0986 38.8666 52.2349 37.8253 52.1125C37.4744 52.0713 36.8767 51.8576 36.6971 51.7915C36.2296 51.6091 35.8448 51.5524 35.7551 51.4335C35.5927 51.0195 35.4827 50.8803 35.2868 50.3257C35.0214 49.5915 35.0004 48.7724 34.9499 48.0227C35.631 48.8639 36.499 49.5721 37.648 49.9337C37.6628 49.9026 39.1387 50.5766 40.2105 50.23L40.4328 50.1582C40.4328 50.178 39.7226 50.2205 39.4621 50.0913C37.2823 49.163 36.9542 48.3504 36.6022 47.9468L35.6609 46.5342C35.9472 45.9623 36.109 45.9405 36.4883 45.9353C37.6357 46.0629 38.1349 46.1612 38.833 45.9924C39.3047 46.9651 39.4322 47.9436 40.5062 48.6515C44.0841 49.7156 44.8614 48.3355 45.7281 47.1161C48.3024 49.009 52.4933 49.5927 55.4038 47.1489C59.1041 42.8591 60.2756 36.0963 59.9474 35.7102C59.4853 34.9247 58.879 34.1146 58.3584 34.2265C56.5027 34.7341 55.8185 35.6773 53.9798 35.4621C54.1988 35.4497 54.567 35.4438 54.5698 35.4229C54.7115 33.8629 54.5584 33.1081 54.4901 32.9786C53.9321 31.7456 53.1994 30.4481 52.6887 29.4758C52.557 29.274 52.1704 27.7419 51.5224 27.1367C51.2445 26.899 50.5644 26.2721 50.5644 26.2721L50.5068 26.9384C50.5068 26.9384 50.7727 26.9786 50.8739 27.3914C51.2575 28.9562 53.2109 32.656 53.3543 32.8333C54.0466 33.9531 53.4247 35.3481 53.951 36.1307C54.0016 36.2301 55.0249 36.122 55.818 36.1708C57.1221 35.8898 57.0671 35.3139 58.1937 35.2274C58.9526 35.1691 59.0287 36.5971 59.0187 36.7079C58.8773 38.2846 58.3986 40.1178 57.6659 41.792C56.1427 44.7324 54.4368 47.3733 52.0174 47.7416C49.0663 48.2583 47.5328 46.9656 45.933 46.1424L45.3211 46.6654C43.242 48.7398 40.7734 48.5555 39.7637 45.8452C39.2611 44.7938 38.6061 44.1494 38.0453 43.2475L35.0711 45.3937C34.8235 45.9025 34.5191 46.7047 34.1493 47.6008C33.8923 48.2238 33.6767 49.2938 33.6907 50.1829C33.3095 50.8336 35.0112 53.4726 36.0865 55.0778C36.4038 55.5515 36.9961 56.3789 37.0159 56.4305C37.2292 56.9847 37.6962 57.474 37.7246 57.5336C39.7208 60.1423 35.2063 59.5416 34.274 59.384C32.4345 59.0903 30.6352 58.3205 28.944 57.291C28.8458 57.2313 28.7481 57.1707 28.6507 57.1093C26.6408 55.8413 24.7915 54.2191 23.2191 52.6145C22.2815 51.5508 21.3888 49.3704 20.7294 47.8247C19.7412 44.1084 18.323 37.6669 22.1648 32.7856C22.4083 32.5065 22.6711 32.042 22.8948 31.9501C24.0362 31.1766 25.2757 30.6494 26.6085 30.3566L26.474 29.491C25.8084 29.6425 23.5671 30.4639 22.9333 30.8076C21.4922 31.2262 20.2968 31.6633 18.4601 32.124C17.8631 32.1972 17.2758 32.1985 16.7033 32.1206C15.382 31.9407 13.13 32.1014 12.9863 31.9677C12.0917 30.7177 11.8467 28.478 11.0304 27.2793L11.0208 27.2674L11.0105 27.256C10.5346 26.6152 9.97996 26.0925 9.43371 25.5487C7.47753 23.6014 5.80323 21.7185 5.33457 19.7233C5.21672 19.1342 4.91324 18.5241 5.07454 16.781L5.07751 16.7725L5.08035 16.7639C5.55098 15.1356 6.31662 13.8082 7.61609 12.4779C8.96837 12.4997 10.3069 12.5295 11.3495 12.7291C11.8278 12.8092 12.8226 12.9394 13.85 13.3229C16.4504 14.2935 19.8864 15.8892 19.8864 15.8892C17.3072 14.47 14.4232 12.6268 12.602 12.2548C12.3311 12.2164 12.1645 12.0926 12.0841 11.8764C14.8232 10.2639 15.3243 8.36538 17.1259 6.66272C17.9493 6.30362 18.2703 6.1203 18.9699 6.04414C25.4402 7.06917 29.5133 9.65123 32.7354 11.3778C34.0432 12.0903 35.232 12.6291 36.3674 13.278C37.3627 13.606 40.3661 15.8779 41.2451 17.1028C42.138 18.9917 42.7899 21.032 43.3845 23.0009C43.8109 25.0035 44.1849 25.8158 44.1849 25.8158C44.1849 25.8158 43.8225 24.1408 43.8829 23.8399C44.2586 23.9805 45.1468 24.2584 45.515 24.2152C45.515 24.2152 43.8704 23.3634 43.6548 22.6106C42.9633 20.195 42.2697 16.4345 42.0827 16.2384C41.5556 15.574 39.3577 13.8887 38.0095 13.1091C37.4995 12.8142 37.2238 12.6313 37.2023 12.5016C37.633 12.0657 38.1649 11.489 38.6418 11.1226C39.099 10.7714 39.5153 10.3753 40.1524 10.1382C42.953 8.87448 44.5543 10.6244 44.9343 10.2701C44.9343 10.2701 44.3318 9.57813 44.5994 9.69203C44.8735 9.84076 45.7667 10.0162 45.8647 10.1075C46.8854 10.9075 49.5539 13.8313 51.1623 16.9164C51.5485 17.6721 51.7056 18.1697 51.5264 19.0796C51.3468 19.9904 51.2078 20.4912 51.0118 21.0995C50.8348 21.5061 49.8335 24.29 49.8374 24.664C49.6356 26.1915 50.4912 28.1037 50.4912 28.1037C50.4993 27.5847 50.4593 27.3081 50.5063 26.9369L50.5639 26.2736C50.5639 26.2736 50.5274 26.0971 50.534 26.0272C50.5774 25.5685 50.6897 25.1828 50.7227 24.9201C51.0443 22.9253 51.6032 21.4892 52.2372 19.7387C52.4257 19.2969 52.6722 19.0512 52.6596 18.7149C52.67 18.118 52.1369 17.3168 51.7517 16.5344C51.3631 15.7436 50.8987 14.862 50.2891 13.9329C48.8991 11.9303 47.7142 10.3634 45.5445 9.38282C44.9375 9.1159 42.5486 8.85493 41.7237 9.01C40.7229 9.21889 39.8623 9.42489 39.1762 9.86513C38.0964 10.5579 37.2479 11.6305 36.2529 12.2625C34.0513 11.1594 32.9888 10.3339 32.7906 10.2201C31.4822 9.51767 29.9113 8.70249 28.2213 7.92944C27.411 7.17234 22.3791 5.36155 17.7715 5.00037L17.7709 5ZM45.9325 46.1412C44.5757 45.0785 43.4335 43.9845 42.6805 42.858C42.4347 44.1829 41.5425 45.1265 40.853 46.0546C40.7158 46.2722 40.6168 46.569 41.2927 47.5148C41.4749 47.7668 42.134 47.8099 42.579 47.7868C42.1263 47.4439 41.4376 47.0813 41.3266 46.767C42.1229 47.3102 42.8603 47.4663 43.5268 47.3789C43.679 47.3617 43.8682 47.1999 44.0144 46.9509C44.3115 46.3113 44.5441 46.1573 44.7792 45.9852L45.3208 46.665L45.9325 46.1412Z" fill="black" stroke="black" stroke-width="0.11397"/>
</svg>
