<svg xmlns="http://www.w3.org/2000/svg" fill="none" viewBox="0 0 640 640">
  <g clip-path="url(#a)" transform="translate(-2154.49) scale(12.47506)">
    <path fill="#287abe" d="M219.858 12.067c1.969 2.2 2.842 4.938 3.467 7.698 3.212 14.21-5.329 27.874-19.561 30.932-15.554 3.342-28.767-7.52-30.751-21.127a25.518 25.518 0 0 1 2.863-16.283c.252-.465.417-1.021 1.001-1.229l7.345.122-2.505 5.296v.545c1.809 5.25 5.181 9.563 8.381 13.977.344 1.874.089 3.849.924 5.64 2.333 2.635 4.665 5.272 6.996 7.91.172.196.379.32.592.03 1.066-.651 1.377-1.847 1.966-2.821 1.338-2.203 2.792-4.346 3.849-6.712l.325-.515c1.309-.51 2.135-1.682 3.293-2.395a2.256 2.256 0 0 0 1.157-2.2c-.068-2.211-.024-4.44-.027-6.643a19.26 19.26 0 0 0 1.481-1.644c1.128-1.583 2.904-2.664 3.567-4.6a.595.595 0 0 0 .592-.296c.468-.71-.035-1.306-.239-1.93-.391-1.203-1.14-2.286-1.217-3.595z"/>
    <path fill="#b8e1f2" d="m184.225 12.18-7.345-.122c.968-2.519 2.883-4.322 4.861-5.98 3.404-2.857 7.309-4.829 11.718-5.625 7.668-1.365 14.643.296 20.816 5.074 2.3 1.777 4.387 3.79 5.589 6.531l-6.513.143-5.329-.066v-1.797l3.819-.02.124-.068-.121-.202a6.447 6.447 0 0 0-4.897-1.832c-5.252.124-10.507.05-15.759.038-1.842 0-3.375.788-4.852 1.762-1.362.059-1.386 1.222-1.738 2.11z"/>
    <path fill="#b6e0f2" d="M181.717 18.015v-.545c3.07-.911 5.889-2.427 8.778-3.76.915-.423 2.176-.387 2.665-1.56 1.758.074 3.552-.296 5.278.231l.042 12.464h-.272c-3.373-1.442-6.721-2.94-10.123-4.304-2.111-.838-4.044-2.177-6.368-2.526z"/>
    <path fill="#90d4f0" d="M181.717 18.015c2.321.346 4.254 1.682 6.377 2.534 3.402 1.365 6.75 2.863 10.122 4.305-.269 1.264-1.521 1.566-2.309 2.31-1.797 1.699-3.946 2.992-5.66 4.795a.401.401 0 0 1-.148.036c-3.198-4.414-6.57-8.725-8.382-13.98z"/>
    <path fill="#4d8ac8" d="M209.176 24.28c0 2.214-.041 4.44.027 6.643a2.252 2.252 0 0 1-1.157 2.2c-1.158.713-1.984 1.886-3.293 2.395-1.397-1.776-2.267-3.896-3.52-5.761-.852-1.267-1.205-2.902-2.664-3.73 0-.28.005-.561.015-.841l.565-.296c.255.313.613.272.944.242 3.022-.276 6.05-.56 9.083-.852z"/>
    <path fill="#b6e0f2" d="M191.022 37.64c-.835-1.793-.592-3.765-.921-5.642a.394.394 0 0 0 .148-.036c2.665.113 5.329.181 7.976.593 0 2.072-.005 4.144-.015 6.217a11.667 11.667 0 0 1-1.592-.172c-1.871-.29-3.677-.953-5.596-.96z"/>
    <path fill="#58afdd" d="M198.208 38.769c0-2.073.004-4.145.014-6.217.613-2.15.095-4.358.335-6.514 1.462.83 1.818 2.466 2.664 3.73 1.256 1.869 2.123 3.977 3.521 5.762l-.326.515-5.954 2.739a1.278 1.278 0 0 1-.254-.015z"/>
    <path fill="#4d8ac8" d="m208.007 12.144 5.329.065c.077 1.309.826 2.393 1.217 3.595.204.627.707 1.22.24 1.93a.642.642 0 0 0-.593.296c-1.11.207-2.072.796-3.076 1.246-1.003.45-1.894 1.202-3.082 1.17 0-2.748-.004-5.494-.014-8.24z"/>
    <path fill="#266fa8" d="M208.048 20.449c1.185.032 2.073-.723 3.082-1.17 1.01-.447 1.966-1.039 3.076-1.246-.666 1.939-2.439 3.017-3.567 4.6a19.418 19.418 0 0 1-1.48 1.644l-9.089.855c-.332.03-.69.071-.945-.242 2.093-.969 4.201-1.904 6.271-2.92.917-.444 1.98-.654 2.652-1.521z"/>
    <path fill="#90d4f0" d="M198.208 38.769c.087.009.175.009.263 0 .047 2.266.094 4.535.139 6.809-.213.296-.417.163-.592-.03-2.335-2.63-4.667-5.264-6.996-7.898 1.916 0 3.722.669 5.593.959.526.09 1.059.143 1.593.16zm-5.036-26.613c-.501 1.184-1.762 1.137-2.665 1.56-2.889 1.333-5.708 2.848-8.778 3.76l2.508-5.296.367-.048z"/>
    <path fill="#266fa8" d="M198.607 45.57c-.045-2.267-.092-4.536-.139-6.81l5.954-2.739c-1.057 2.369-2.511 4.51-3.849 6.712-.574.986-.9 2.182-1.966 2.836zm15.602-27.531a.647.647 0 0 1 .593-.296.595.595 0 0 1-.593.296z"/>
    <path fill="#f4fafd" d="M186.327 10.021c1.48-.973 3.011-1.776 4.852-1.761 5.255 0 10.51.086 15.759-.038a6.45 6.45 0 0 1 4.903 1.835v.272l-3.849.021h-19.806c-.639 0-1.285.039-1.859-.329z"/>
    <path fill="#e9f6fd" d="M186.327 10.021c.574.368 1.22.326 1.859.326h19.806v1.797l.024.065-9.566.181c-1.741-.524-3.52-.157-5.278-.23l-8.586-.022c.358-.894.379-2.057 1.741-2.117zm25.514.297v-.273l.121.202z"/>
    <path fill="#68c1ea" d="m198.45 12.39 9.584-.175c0 2.748.005 5.494.014 8.24-.672.867-1.732 1.077-2.64 1.524-2.073 1.016-4.178 1.951-6.271 2.92l-.565.295-.08-.334z"/>
    <path fill="#fff" d="m198.469 24.828-.281.031-.11.422-.203.313-.266.343-.453.344-.515.313-.578.406-.657.625-.812.672-1.25.984-1.203.953-.72.61-.75.656-.484.484 1.938.047 1.781.094 1.344.094 1.422.125.984.14.547.078.125-.468.125-.703.078-.844v-1.031l-.031-.86-.031-.968.031-.938.047-.719.015-.672.047-.187z"/>
  </g>
  <defs>
    <clipPath id="a">
      <path fill="#fff" d="M0 0h224v51.316H0z"/>
    </clipPath>
  </defs>
</svg>
