<svg width="100%" height="100%" viewBox="0 0 64 64" fill="none" xmlns="http://www.w3.org/2000/svg">
<path d="M39.1997 30.1426L28.0209 33.8046L18.2954 38.1107L15.5746 38.8313C14.8816 39.4926 14.155 40.1623 13.3692 40.8404C12.5074 41.5863 11.7047 42.2645 11.0877 42.7561C10.4034 43.2986 9.38939 44.3158 8.87401 44.9599C8.10505 45.9263 7.4967 46.9519 7.23474 47.7404C6.76998 49.1645 6.99823 50.6055 7.89386 51.9365C9.043 53.6317 11.3329 55.3609 14.0029 56.5392C15.3634 57.1412 17.6532 57.9125 19.3769 58.3447C22.2412 59.0738 27.7842 59.8621 30.8345 59.9809C31.4512 60.0063 32.2794 60.0063 32.3131 59.9809C32.3807 59.9384 32.8539 59.0314 33.4032 57.9041C35.2791 54.0641 36.631 50.4614 37.366 47.3844C37.8054 45.5196 38.1518 43.0359 38.3798 40.0946C38.4391 39.2723 38.4644 36.5173 38.4137 35.5848C38.3376 34.0591 38.2024 32.8215 37.9913 31.6093C37.9575 31.4313 37.9489 31.2702 37.9659 31.2617C37.9996 31.2363 38.101 31.2024 39.4783 30.8039L39.1996 30.1429V30.1427H39.1997V30.1426ZM36.648 31.6431C36.7493 31.6431 37.0196 34.2454 37.0872 35.89C37.1042 36.2375 37.0956 36.4663 37.0788 36.4663C37.0113 36.4663 35.6508 35.6611 34.6792 35.0508C33.8342 34.5168 32.2289 33.4486 31.9754 33.2452C31.8907 33.1859 31.8991 33.1775 32.5921 32.94C33.7665 32.5416 36.555 31.6431 36.648 31.6431ZM30.9529 33.5249C31.029 33.5249 31.2232 33.635 31.688 33.9233C33.4285 35.0168 35.7945 36.3392 36.8085 36.7801C37.121 36.9157 37.1547 36.8647 36.4367 37.3565C34.8988 38.4076 32.9806 39.4417 30.6316 40.4843C30.2177 40.6708 29.8713 40.8149 29.8629 40.8149C29.846 40.8149 29.8966 40.6031 29.9641 40.3487C30.5302 38.2379 30.8514 36.1018 30.8684 34.3895C30.8768 33.5417 30.8768 33.5417 30.9529 33.5165C30.9359 33.5249 30.9443 33.5249 30.9529 33.5249ZM29.7784 33.9742C29.829 34.0249 29.7953 35.9238 29.7276 36.4409C29.5755 37.6785 29.3389 38.8313 28.9504 40.1283C28.8574 40.4418 28.7728 40.7047 28.7561 40.7216C28.7221 40.7639 27.5645 39.6281 27.1843 39.1873C26.5252 38.4244 26.0099 37.6615 25.6296 36.9156C25.4353 36.5341 25.1311 35.7882 25.1564 35.7627C25.2916 35.6695 29.7446 33.9403 29.7784 33.9742ZM24.2523 36.1526C24.2607 36.1526 24.2691 36.1526 24.2777 36.1611C24.2945 36.1781 24.3538 36.3137 24.4045 36.4663C24.6748 37.2038 25.283 38.2888 25.8071 38.9839C26.3816 39.7468 27.1337 40.5605 27.7588 41.0946C27.9617 41.2641 28.1475 41.4251 28.1728 41.4506C28.2236 41.5015 28.2405 41.4929 26.8631 42.0185C25.2663 42.6289 23.5256 43.2392 21.5314 43.8833C21.0551 44.0374 20.5791 44.1928 20.1037 44.3496C20.0275 44.3751 20.0529 44.3326 20.2726 43.9852C21.2611 42.4339 22.7651 39.3908 23.6101 37.2376C23.7538 36.8647 23.8974 36.4917 23.9228 36.407C23.9566 36.2882 23.9988 36.2459 24.1086 36.1865C24.1678 36.1697 24.227 36.1526 24.2523 36.1526ZM22.5625 36.8562C22.5878 36.8733 22.1568 37.7802 21.7344 38.6109C20.9147 40.213 20.0191 41.7898 18.8192 43.7055C18.6165 44.036 18.4222 44.3412 18.3968 44.3751C18.3546 44.4345 18.3376 44.4175 18.2024 44.1547C17.9151 43.5868 17.6785 42.8577 17.5518 42.188C17.425 41.5268 17.4504 40.3741 17.5941 39.662C17.7038 39.1365 17.6955 39.145 17.9489 39.0178C19.0305 38.4669 22.5287 36.8223 22.5625 36.8562ZM37.138 37.4497V37.8057C37.138 39.696 36.9352 42.2898 36.6394 44.1802C36.5887 44.5108 36.5463 44.7819 36.538 44.7905C36.538 44.7905 36.293 44.7228 36.0057 44.6379C34.7383 44.2395 33.361 43.6546 32.1189 42.9681C31.2991 42.5188 30.1078 41.7812 30.1417 41.7473C30.15 41.7389 30.505 41.5524 30.9189 41.3319C32.5753 40.4674 34.1636 39.5349 35.5409 38.611C36.0564 38.2634 36.8336 37.704 37.0028 37.5514L37.138 37.4497ZM16.1829 39.9586C16.2167 39.9586 16.2082 40.0264 16.1575 40.3316C16.1237 40.5521 16.0815 40.959 16.0647 41.2386C15.997 42.4762 16.1999 43.3918 16.8082 44.6463C16.9772 44.9938 17.1125 45.282 17.1039 45.2904C17.0448 45.3414 11.4512 46.9859 9.69359 47.4691C9.16975 47.6131 8.71356 47.7403 8.67958 47.7487C8.62055 47.7657 8.61206 47.7573 8.63738 47.613C8.8317 46.367 9.7781 44.7395 11.0962 43.3662C11.975 42.4508 12.6763 41.9168 13.8762 41.23C14.738 40.7385 16.0646 40.0011 16.166 39.9671C16.1661 39.9586 16.1745 39.9586 16.1829 39.9586ZM29.3644 42.3236C29.3728 42.3152 29.5755 42.4255 29.8205 42.5695C31.6288 43.6207 34.1468 44.5955 36.2928 45.0956L36.4873 45.138L36.2169 45.2904C35.0931 45.9178 31.4006 47.4605 27.6237 48.8762C27.0744 49.0795 26.5337 49.2831 26.4322 49.3254C26.3308 49.3677 26.2378 49.3932 26.2378 49.3848C26.2378 49.3762 26.39 49.0795 26.5842 48.7151C27.6404 46.7316 28.7052 44.3157 29.2459 42.6373C29.3137 42.4762 29.3558 42.3322 29.3644 42.3236ZM28.0209 42.7645C28.0294 42.7731 27.9618 42.951 27.8772 43.1544C27.1421 44.943 26.1787 46.8928 24.9452 49.0797C24.6326 49.6392 24.3706 50.0885 24.362 50.0885C24.3537 50.0885 24.1002 49.9358 23.796 49.7494C22.0046 48.6474 20.4161 47.2911 19.3769 45.9772L19.2247 45.7907L19.9936 45.5788C22.7482 44.8244 25.0886 44.0107 27.4124 43.0104C27.742 42.8748 28.0124 42.7645 28.0209 42.7645ZM36.3691 45.689C36.3775 45.8839 35.9466 47.6302 35.5916 48.8931C35.2959 49.9527 35.0423 50.7835 34.5777 52.2498C34.3749 52.8942 34.1976 53.4281 34.189 53.4281C34.1806 53.4281 34.1299 53.4197 34.0792 53.4028C31.5697 52.9449 29.3221 52.3092 27.2097 51.4616C26.6181 51.2242 25.7732 50.8427 25.7225 50.8004C25.7057 50.7832 26.2127 50.5461 26.8549 50.2663C30.6994 48.5794 34.6876 46.6637 36.0564 45.8415C36.2169 45.7398 36.3437 45.689 36.3691 45.689ZM17.0955 46.3502C17.1124 46.3671 16.0393 47.9184 14.5352 50.0291C14.0114 50.7666 13.403 51.6311 13.1749 51.9532C12.9468 52.2754 12.6004 52.784 12.406 53.0892L12.051 53.6402L11.6707 53.3181C11.2229 52.945 10.4456 52.1482 10.0992 51.7074C9.37245 50.8005 8.88247 49.8426 8.68811 48.9696C8.59515 48.5627 8.59514 48.3591 8.67954 48.3338C8.80625 48.2999 11.0623 47.7659 13.1749 47.2741C14.3494 47.003 15.7096 46.6809 16.1997 46.5622C16.6899 46.4433 17.0871 46.3502 17.0955 46.3502ZM18.177 46.7656L18.4473 47.0707C19.6642 48.4355 20.9063 49.4444 22.4103 50.3257C22.6808 50.4784 22.8835 50.6139 22.8665 50.6226C22.8075 50.6649 17.6447 52.5042 15.2535 53.335C13.91 53.8096 12.8031 54.1911 12.7947 54.1911C12.7863 54.1911 12.7102 54.1403 12.6256 54.0809L12.4736 53.9707L12.7186 53.6147C13.5128 52.4619 14.51 51.1989 16.6815 48.5711L18.177 46.7656ZM24.9199 51.6057C24.9282 51.5973 25.3 51.7328 25.7563 51.9025C26.8549 52.3178 27.725 52.5805 28.8912 52.8773C30.3276 53.2418 32.4062 53.5978 33.6315 53.6995C33.8174 53.7164 33.9187 53.7334 33.8849 53.7589C33.8257 53.7928 32.5837 54.2082 31.6711 54.4964C30.2177 54.954 25.7817 56.2679 22.1653 57.3106C21.4978 57.5056 20.9232 57.6666 20.8894 57.675C20.805 57.6921 20.526 57.6157 20.526 57.5818C20.526 57.5649 20.7288 57.3022 20.9739 57.0139C22.1905 55.5559 23.399 53.9284 24.4045 52.3856C24.6832 51.9617 24.9199 51.6142 24.9199 51.6057ZM23.4327 51.6482C23.4411 51.6566 22.8412 52.6229 21.7936 54.2843C21.3456 54.9879 20.8471 55.7847 20.6696 56.0644C20.5006 56.3357 20.2472 56.7596 20.1036 56.9969L19.8585 57.4293L19.7318 57.3953C19.4275 57.3105 17.2898 56.556 16.7237 56.3272C16.0223 56.0474 15.2956 55.7085 14.7548 55.4203C14.0789 55.0557 13.234 54.5132 13.3016 54.4963C13.3184 54.4879 14.4761 54.1741 15.8702 53.7927C19.5712 52.7839 21.6244 52.1991 22.968 51.7753C23.2131 51.6989 23.4242 51.6396 23.4327 51.6482ZM33.9524 54.1232H33.9609C33.9947 54.2081 32.6259 58.0226 32.1272 59.2262C32.0175 59.4975 31.9754 59.5654 31.9161 59.5568C31.7725 59.5484 29.7869 59.2687 28.5784 59.0906C26.4746 58.7685 22.9426 58.1496 22.0555 57.9463L21.8527 57.904L23.1115 57.6156C25.8155 57.0053 27.1167 56.6747 28.4348 56.2678C30.0994 55.7592 31.7472 55.1235 33.4117 54.3437C33.6736 54.2249 33.8933 54.1317 33.9524 54.1232Z" fill="url(#paint0_linear_1911_130908)"/>
<path d="M27.6745 4.00043C27.4886 3.97514 24.4889 5.06015 22.554 5.84838C19.943 6.91658 17.9152 7.93384 16.6646 8.81523C16.1999 9.14596 15.6168 9.73078 15.524 9.95961C15.4902 10.0444 15.4732 10.1461 15.4732 10.2478L16.6055 11.3244L19.3009 12.189L25.7142 13.3419L33.0483 14.6049L33.1244 13.9692C33.0992 13.9692 33.0822 13.9607 33.057 13.9607L32.0935 13.8081L31.8993 13.4606C30.9022 11.6974 29.8038 9.51035 29.1617 8.03539C28.6632 6.89101 28.19 5.56878 27.928 4.61934C27.7843 4.04292 27.7675 4.00903 27.6747 4.00059V4.00039H27.6745V4.00043ZM27.5391 4.43288H27.5478C27.5561 4.44124 27.5899 4.67875 27.6238 4.95832C27.7673 6.14523 28.0294 7.28941 28.4434 8.52706C28.756 9.45954 28.756 9.40872 28.3927 9.29845C27.5308 9.06118 23.6694 8.3915 20.8726 8.00158C20.4247 7.9422 20.0445 7.88291 20.0445 7.87446C20.0107 7.84057 22.0639 6.76393 22.968 6.34021C24.1256 5.80605 27.3026 4.47521 27.5391 4.43288ZM19.3937 8.23041L19.7234 8.34049C21.5146 8.9509 26.0181 9.81556 28.5025 10.019C28.7812 10.0444 29.0179 10.0699 29.0262 10.0699C29.0346 10.0784 28.7982 10.2055 28.4939 10.3496C27.2942 10.9514 25.976 11.6889 25.0634 12.2569C24.7931 12.4263 24.548 12.5621 24.5143 12.5621C24.4804 12.5621 24.3031 12.5281 24.1172 12.5027L23.7792 12.4517L22.9343 11.621C21.4472 10.1715 20.2811 9.05265 19.8332 8.62873L19.3937 8.23041ZM19.0559 8.49313L20.2472 9.98509C20.8978 10.8073 21.5569 11.6126 21.7006 11.7905C21.8442 11.9686 21.9625 12.1128 21.9541 12.1212C21.9203 12.1467 20.2305 11.816 19.3347 11.6127C18.4137 11.4007 18.0335 11.299 17.4674 11.121L17.0026 10.9684V10.8496C17.011 10.2817 17.7293 9.43405 18.946 8.56951L19.0559 8.49313ZM29.1784 10.5276C29.2123 10.5276 29.2544 10.6038 29.3558 10.8327C29.6431 11.4684 30.5389 13.1808 30.7584 13.5113C30.8262 13.6217 30.9443 13.6301 29.7531 13.4351C26.8887 12.9688 25.9676 12.8164 25.9676 12.7994C25.9676 12.791 26.0521 12.7316 26.1619 12.6722C27.0492 12.1807 27.9448 11.5533 28.7391 10.8836C28.9335 10.7226 29.1109 10.57 29.1446 10.5445C29.153 10.5276 29.17 10.5191 29.1784 10.5276Z" fill="url(#paint1_linear_1911_130908)"/>
<path d="M15.5829 9.84082C15.5829 9.84082 15.3971 10.1376 15.5745 10.5784C15.6845 10.8496 16.0055 11.1801 16.3688 11.5193C16.3688 11.5193 20.1288 15.1981 20.5852 15.7238C22.6637 18.1311 23.5678 20.5046 23.6523 23.7766C23.703 25.8789 23.3058 27.7268 22.3173 29.8714C20.5597 33.7199 16.8503 37.9667 11.1299 42.6798L11.9666 42.4001C12.5073 41.9931 13.2425 41.5609 14.9661 40.6115C18.9458 38.4244 23.4242 36.4154 28.9165 34.3471C36.8251 31.3632 49.8292 27.8707 57.2309 26.735L58 26.6163L57.8816 26.4298C57.2058 25.3786 56.7409 24.726 56.1831 24.0309C54.5609 22.0134 52.5923 20.3775 50.184 19.0211C46.8718 17.1648 42.5877 15.7153 37.1632 14.6388C36.1408 14.4352 33.8932 14.0453 32.0681 13.7656C28.1981 13.1639 25.697 12.7485 22.9425 12.2738C21.954 12.1042 20.4752 11.8499 19.495 11.6381C18.9881 11.5278 18.0165 11.2989 17.256 11.0362C16.6476 10.7987 15.7688 10.5614 15.5829 9.84082ZM17.763 11.9601C17.7714 11.9517 17.9065 12.0024 18.0841 12.0618C18.4052 12.1719 18.8192 12.2991 19.3094 12.4348C19.6802 12.5371 20.052 12.636 20.4247 12.7314C20.9317 12.8585 21.3541 12.9772 21.3625 12.9772C21.4218 13.0366 22.2752 15.7744 22.5625 16.8255C22.6722 17.2241 22.7568 17.563 22.7484 17.563C22.7397 17.5716 22.6469 17.4274 22.5371 17.2325C21.5484 15.4863 19.9853 13.7147 18.177 12.2905C17.9405 12.1211 17.763 11.9685 17.763 11.9601ZM21.9202 13.1129C21.9625 13.1129 22.1484 13.1384 22.3764 13.1892C23.8129 13.5113 26.3901 14.0029 28.0377 14.2827C28.3165 14.325 28.5363 14.376 28.5363 14.3929C28.5363 14.4099 28.4348 14.4691 28.308 14.537C28.0293 14.6811 26.9054 15.3507 26.5337 15.605C25.5957 16.2323 24.7509 16.9104 24.1424 17.5207C23.8974 17.7666 23.6861 17.97 23.6861 17.97C23.6861 17.97 23.6356 17.826 23.5931 17.6478C23.2891 16.4696 22.6553 14.7233 22.0807 13.4943C21.9878 13.2994 21.9117 13.1213 21.9117 13.1044C21.9117 13.1214 21.9117 13.1129 21.9202 13.1129ZM29.2375 14.5116C29.2882 14.5285 29.3727 14.8167 29.5417 15.4524C29.8544 16.6816 29.998 18.0548 29.9474 19.3348C29.9304 19.6908 29.9135 20.0214 29.8965 20.0639L29.8713 20.1485L29.4319 20.0045C28.5278 19.7163 27.0576 19.2839 25.7987 18.9279C25.0803 18.7329 24.4974 18.5549 24.4974 18.538C24.4974 18.4871 25.5452 17.436 25.993 17.0376C26.8463 16.2831 29.1614 14.4861 29.2375 14.5116ZM29.8206 14.5962C29.846 14.5709 33.3187 15.1726 34.8988 15.4779C36.0734 15.7067 37.7802 16.0628 37.8815 16.1052C37.9322 16.1221 37.7547 16.2238 37.1886 16.4781C34.9579 17.4869 33.3017 18.3938 31.6542 19.4959C31.2233 19.7841 30.8599 20.0214 30.8515 20.0214C30.8431 20.0214 30.8346 19.7756 30.8346 19.4789C30.8346 17.8684 30.5135 16.2408 29.9219 14.8676C29.8628 14.732 29.8121 14.6048 29.8206 14.5962ZM38.8025 16.3764C38.8279 16.4019 38.718 17.0885 38.6166 17.4953C38.3124 18.7584 37.4928 20.6319 36.4874 22.3949C36.3098 22.7086 36.1493 22.9629 36.1323 22.9713C36.1156 22.9798 35.8874 22.8526 35.6254 22.7C34.6453 22.1236 33.53 21.5811 32.3132 21.0724C31.9753 20.9284 31.6795 20.8096 31.6711 20.7928C31.6118 20.7419 34.3326 18.9364 35.7691 18.0717C36.9098 17.3767 38.7686 16.3425 38.8025 16.3764ZM39.4446 16.4781C39.5207 16.4781 41.0585 16.902 41.8611 17.1393C43.8469 17.7328 46.1282 18.5719 47.6153 19.25L48.2321 19.5299L47.8013 19.6315C44.1681 20.4706 41.0585 21.4371 38.0589 22.6577C37.8138 22.7594 37.5941 22.8442 37.5774 22.8442C37.5604 22.8442 37.6449 22.6493 37.7548 22.4118C38.6589 20.4877 39.2419 18.4787 39.3854 16.7663C39.394 16.6052 39.4192 16.4781 39.4446 16.4781ZM24.134 20.0045C24.1593 19.979 25.3339 20.2588 25.9676 20.4367C26.9308 20.708 28.9755 21.3945 28.9755 21.4455C28.9755 21.4539 28.7475 21.6489 28.4772 21.8863C27.3703 22.8103 26.3055 23.785 25.0296 25.0226C24.6493 25.3872 24.3283 25.6839 24.3115 25.6839C24.2945 25.6839 24.2862 25.6329 24.2945 25.5651C24.4888 24.141 24.4467 22.3101 24.1763 20.4537C24.1509 20.2163 24.1256 20.0129 24.134 20.0045ZM48.8153 20.03C48.8321 20.0468 48.2745 20.9284 47.9196 21.4285C47.4127 22.1574 46.6689 23.124 44.9875 25.2431C44.1005 26.3619 43.1032 27.6251 42.7738 28.0489C42.4357 28.4727 42.157 28.8286 42.1484 28.8286C42.14 28.8286 42.0303 28.6761 41.9119 28.4897C40.9655 27.0655 39.8332 25.8195 38.4897 24.7006C38.2363 24.4886 37.9576 24.2597 37.8646 24.1919C37.7716 24.1241 37.6955 24.0563 37.6955 24.0478C37.6955 24.0225 39.1318 23.4035 40.222 22.9628C42.1317 22.1829 44.7339 21.2505 46.6859 20.6486C47.7083 20.3266 48.7983 20.0129 48.8153 20.03ZM49.4659 20.1994C49.4996 20.191 49.7025 20.2927 49.9475 20.4367C52.0008 21.6149 54.0117 23.1323 55.6004 24.6921C56.0481 25.1329 57.155 26.2857 57.138 26.2942C57.138 26.2942 56.7494 26.3281 56.2932 26.3619C52.7359 26.6333 48.1817 27.3876 43.8047 28.4472C43.509 28.5149 43.2471 28.5743 43.2301 28.5743C43.2134 28.5743 43.5428 28.2437 43.9569 27.8454C46.5255 25.3617 47.7001 23.7935 49.0857 20.9961C49.28 20.5809 49.4491 20.2249 49.4659 20.1994C49.4575 20.1994 49.4575 20.1994 49.4659 20.1994ZM30.6486 22.1322C30.767 22.1575 31.8654 22.6748 32.6934 23.09C33.4539 23.4713 34.5947 24.0818 34.6538 24.1326C34.6622 24.141 34.2565 24.3529 33.7582 24.5988C32.1696 25.3956 30.8092 26.15 29.3896 27.0146C28.9841 27.2605 28.6461 27.464 28.6377 27.464C28.6039 27.464 28.6123 27.4299 28.8405 27.0146C29.601 25.6246 30.2092 23.9631 30.5558 22.344C30.5894 22.2169 30.6233 22.1322 30.6486 22.1322ZM29.5501 22.3355C29.5755 22.361 29.2882 23.4036 29.1109 23.9715C28.7643 25.0481 28.1813 26.3959 27.6153 27.4131C27.4799 27.6503 27.2772 27.9979 27.1674 28.1928L26.9562 28.5319L26.483 28.0743C25.9338 27.5402 25.4859 27.2096 24.9114 26.9129C24.6832 26.7943 24.5058 26.6925 24.5058 26.6756C24.5058 26.6078 25.9507 25.2939 27.0576 24.3445C27.8518 23.6579 29.5248 22.3101 29.5501 22.3355ZM36.2677 25.1075L36.6818 25.3786C37.6279 25.9975 38.7432 26.8197 39.5968 27.5402C40.0783 27.9385 41.0077 28.7779 41.1938 28.9813L41.295 29.0916L40.6108 29.2865C36.7408 30.3629 33.7496 31.3208 30.2599 32.6094C29.8713 32.7534 29.5417 32.8721 29.5163 32.8721C29.4658 32.8721 29.4234 32.9144 30.2938 32.1091C32.5245 30.0494 34.5016 27.7775 35.9719 25.5651L36.2677 25.1075ZM34.5017 25.5483C34.5185 25.5651 33.361 27.2011 32.668 28.1251C31.84 29.2271 30.3697 31.075 29.3558 32.2786C28.9334 32.7788 28.5702 33.1941 28.5532 33.2026C28.5278 33.2111 28.5193 33.084 28.5193 32.889C28.5193 31.8632 28.2575 30.7697 27.8011 29.8374C27.6068 29.4475 27.5729 29.3542 27.6153 29.3119C27.7758 29.1677 30.2346 27.7606 31.7893 26.9214C32.8371 26.362 34.4761 25.5313 34.5017 25.5483ZM23.8213 28.176C23.8467 28.176 24.0411 28.2777 24.2608 28.3964C24.8015 28.6931 25.2832 29.0236 25.7141 29.3798C25.7309 29.3966 25.5113 29.5747 25.224 29.7865C24.4213 30.3629 23.2046 31.287 22.4949 31.8549C21.7512 32.4483 21.726 32.4652 21.8104 32.3381C22.3681 31.4819 22.6468 30.9988 22.9427 30.38C23.2046 29.8291 23.4664 29.1763 23.6523 28.6084C23.7199 28.3625 23.8045 28.176 23.8213 28.176ZM26.6689 30.4138C26.711 30.4055 26.7619 30.4816 26.9899 30.8208C27.4716 31.5412 27.8434 32.5076 27.9364 33.2875L27.9532 33.4571L26.7957 33.9064C24.7254 34.7116 22.8159 35.5085 21.523 36.1017C21.1598 36.2713 20.526 36.5764 20.112 36.78C19.698 36.9918 19.36 37.1529 19.36 37.1444C19.36 37.136 19.6219 36.941 19.9429 36.7036C22.4695 34.8642 24.6579 32.8467 26.2971 30.8293C26.4746 30.6173 26.6352 30.4223 26.6519 30.4139L26.6689 30.4138ZM25.3593 30.736C25.3931 30.7699 24.4298 31.8633 23.7708 32.533C22.14 34.203 20.5261 35.5085 18.5235 36.78C18.27 36.941 18.0419 37.085 18.0165 37.1021C17.9573 37.136 18.0333 37.0512 18.9121 36.0933C19.4699 35.4914 19.8923 34.9828 20.3739 34.3556C20.695 33.9403 20.7542 33.881 21.219 33.5502C22.4611 32.6517 25.3254 30.702 25.3593 30.736Z" fill="url(#paint2_radial_1911_130908)"/>
<defs>
<linearGradient id="paint0_linear_1911_130908" x1="15.4103" y1="54.4604" x2="19.4592" y2="52.0756" gradientUnits="userSpaceOnUse">
<stop stop-color="#909CA9"/>
<stop offset="1" stop-color="#EDEDEE"/>
</linearGradient>
<linearGradient id="paint1_linear_1911_130908" x1="15.5029" y1="9.28609" x2="18.7554" y2="9.28609" gradientUnits="userSpaceOnUse">
<stop stop-color="#939FAB"/>
<stop offset="1" stop-color="#DCDEE1"/>
</linearGradient>
<radialGradient id="paint2_radial_1911_130908" cx="0" cy="0" r="1" gradientUnits="userSpaceOnUse" gradientTransform="translate(31.915 24.2509) rotate(-171.43) scale(4.19369 8.41517)">
<stop stop-color="#EE352C"/>
<stop offset="1" stop-color="#A91D22"/>
</radialGradient>
</defs>
</svg>
