<svg width="100%" height="100%" viewBox="0 0 64 64" fill="none" xmlns="http://www.w3.org/2000/svg">
<path d="M22.1687 49.9939H42.7501C47.3658 49.8722 51.7522 47.923 54.9744 44.5618C58.1967 41.2005 60 36.693 60 32C60 27.307 58.1967 22.7995 54.9744 19.4382C51.7522 16.077 47.3658 14.1278 42.7501 14.0061H22.1687C19.8052 13.9437 17.4533 14.363 15.2518 15.2393C13.0503 16.1156 11.0438 17.431 9.35041 19.1081C7.65707 20.7851 6.31125 22.7898 5.39234 25.004C4.47342 27.2181 4 29.5969 4 32C4 34.4031 4.47342 36.7819 5.39234 38.996C6.31125 41.2102 7.65707 43.2149 9.35041 44.8919C11.0438 46.569 13.0503 47.8844 15.2518 48.7607C17.4533 49.637 19.8052 50.0563 22.1687 49.9939ZM42.2853 43.6588H22.6215C19.6465 43.5613 16.8254 42.2915 14.7548 40.118C12.6842 37.9444 11.5265 35.0376 11.5265 32.0121C11.5265 28.9867 12.6842 26.0798 14.7548 23.9063C16.8254 21.7327 19.6465 20.4629 22.6215 20.3654H42.2853C43.8211 20.3151 45.3513 20.5791 46.7848 21.1417C48.2183 21.7043 49.5258 22.5541 50.6298 23.6406C51.7338 24.7271 52.6116 26.028 53.211 27.4662C53.8105 28.9043 54.1194 30.4502 54.1194 32.0121C54.1194 33.574 53.8105 35.1199 53.211 36.5581C52.6116 37.9962 51.7338 39.2971 50.6298 40.3836C49.5258 41.4701 48.2183 42.3199 46.7848 42.8825C45.3513 43.4452 43.8211 43.7092 42.2853 43.6588Z" fill="#C74634"/>
</svg>
