<svg width="100%" height="100%" viewBox="0 0 64 64" fill="none" xmlns="http://www.w3.org/2000/svg">
<path d="M45.7261 44.9147C46.0777 41.9859 45.9723 41.5564 48.1538 42.0308L48.7076 42.0795C50.385 42.1558 52.5793 41.8097 53.8684 41.2108C56.6434 39.9232 58.2889 37.7734 55.5526 38.3383C49.311 39.6259 48.8819 37.5124 48.8819 37.5124C55.4727 27.7334 58.2278 15.3198 55.8497 12.2813C49.3632 3.99311 38.1354 7.91239 37.9475 8.01415L37.8877 8.0252C36.6545 7.76931 35.2743 7.61643 33.7238 7.59136C30.8993 7.54495 28.7561 8.33183 27.1303 9.56496C27.1303 9.56496 7.10047 1.31292 8.0323 19.9427C8.23047 23.9058 13.713 49.9308 20.2519 42.07C22.6418 39.1956 24.9515 36.7652 24.9515 36.7652C26.0984 37.5272 27.4715 37.9159 28.9116 37.7762L29.0229 37.6813C28.988 38.0382 29.0034 38.3873 29.0674 38.8005C27.3832 40.6827 27.8781 41.0131 24.5103 41.7063C21.1031 42.4086 23.1048 43.6588 24.4114 43.9856C25.9959 44.3818 29.6612 44.9431 32.1385 41.4759L32.0399 41.8715C32.7007 42.4001 32.656 45.6711 32.7497 48.0082C32.8435 50.3454 33 52.5264 33.4764 53.8122C33.9528 55.0979 34.5149 58.4099 38.941 57.4614C42.6402 56.6687 45.4684 55.5278 45.7261 44.9147Z" fill="black" stroke="black" stroke-width="4.99111"/>
<path d="M55.8503 12.2806C58.228 15.3188 55.4292 27.6554 48.8384 37.435C48.8384 37.435 49.2677 39.5492 55.5101 38.2607C58.2451 37.6959 56.5991 39.8459 53.8252 41.1342C51.5487 42.1907 47.4563 43.423 46.3612 41.0013C46.2548 42.4193 45.4256 49.3403 44.9955 51.8324C44.4115 55.2195 43.0657 56.7541 39.367 57.547C34.9397 58.4955 33.6522 55.5706 33.0506 54.0668C32.4653 52.6031 32.2302 46.6735 32.3766 40.692C32.3379 40.9427 32.2472 41.1832 32.0939 41.3978C29.6171 44.8658 25.9515 44.3046 24.367 43.9081C23.0604 43.5815 21.0584 42.3315 24.4659 41.6291C27.8337 40.9356 27.3382 40.6052 29.0231 38.7232C28.9667 38.356 28.9757 37.9621 29.0336 37.5434C27.5864 37.6835 26.17 37.4335 24.9949 36.666C24.9949 36.666 22.6416 39.1957 20.2516 42.0701C13.7124 49.9309 8.23004 23.9059 8.03186 19.9425C7.1017 1.34126 26.9856 9.49381 27.0463 9.51874C28.6764 8.26749 30.8311 7.46676 33.679 7.51347C33.7305 7.51431 33.7819 7.51537 33.8331 7.51666C34.0114 7.52113 34.188 7.52827 34.3627 7.53778C35.6498 7.60785 36.8381 7.80707 37.8879 8.02499C44.5039 6.84061 51.1302 6.24967 55.8503 12.2806Z" fill="#336791"/>
<path d="M55.8503 12.2806L56.5054 11.7679L56.5054 11.7679L55.8503 12.2806ZM37.8879 8.02499L37.7188 8.83948L37.8762 8.87215L38.0345 8.84382L37.8879 8.02499ZM34.3627 7.53778L34.4079 6.70716L34.3627 7.53778ZM33.8331 7.51666L33.8122 8.34825L33.8331 7.51666ZM33.679 7.51347L33.6654 8.34521L33.6654 8.34521L33.679 7.51347ZM8.03186 19.9425L8.86267 19.901L8.86267 19.901L8.03186 19.9425ZM20.2516 42.0701L20.8911 42.6021L20.8912 42.6019L20.2516 42.0701ZM33.0506 54.0668L32.2782 54.3756L32.2782 54.3758L33.0506 54.0668ZM39.367 57.547L39.5412 58.3604L39.5414 58.3604L39.367 57.547ZM44.9955 51.8324L44.1758 51.6909L44.1758 51.691L44.9955 51.8324ZM55.5101 38.2607L55.6782 39.0754L55.6783 39.0754L55.5101 38.2607ZM53.8252 41.1342L54.1754 41.8887L54.1756 41.8886L53.8252 41.1342ZM46.4937 33.6704L47.2627 33.3532L47.2627 33.3531L46.4937 33.6704ZM29.0231 38.7232L29.6428 39.278L29.6434 39.2774L29.0231 38.7232ZM24.4659 41.6291L24.2982 40.8143L24.298 40.8144L24.4659 41.6291ZM24.367 43.9081L24.569 43.1011L24.5688 43.1011L24.367 43.9081ZM32.0939 41.3978L31.417 40.9143L31.417 40.9143L32.0939 41.3978ZM31.0534 38.2275L31.3719 37.4591L31.3717 37.459L31.0534 38.2275ZM29.8479 34.7265L29.0682 34.4368L29.068 34.4372L29.8479 34.7265ZM31.1034 22.7714L31.9165 22.5956L31.9164 22.5955L31.1034 22.7714ZM21.858 29.6406L21.0341 29.5254L21.0341 29.5254L21.858 29.6406ZM48.6404 25.4464L49.4718 25.4734L49.4718 25.4729L48.6404 25.4464ZM29.0336 37.5434L29.8576 37.6574L29.0336 37.5434ZM49.5282 37.8999C52.8787 32.9283 55.2635 27.3125 56.5123 22.5403C57.1364 20.1551 57.4838 17.9543 57.5163 16.1323C57.548 14.3583 57.2862 12.7655 56.5054 11.7679L55.1952 12.7932C55.6033 13.3147 55.8832 14.4034 55.8529 16.1026C55.8234 17.7537 55.5049 19.818 54.9028 22.1192C53.6989 26.7198 51.3889 32.162 48.1486 36.9701L49.5282 37.8999ZM38.057 7.2105C36.9844 6.98786 35.7517 6.78032 34.4079 6.70716L34.3175 8.3684C35.5479 8.43538 36.6918 8.62628 37.7188 8.83948L38.057 7.2105ZM34.4079 6.70716C34.2253 6.69722 34.0406 6.68975 33.854 6.68507L33.8122 8.34825C33.9821 8.35251 34.1506 8.35931 34.3175 8.3684L34.4079 6.70716ZM33.854 6.68507C33.8003 6.68372 33.7465 6.68261 33.6926 6.68172L33.6654 8.34521C33.7145 8.34601 33.7634 8.34702 33.8122 8.34825L33.854 6.68507ZM27.3623 8.74926C27.3236 8.73334 22.1847 6.61959 17.119 6.91538C14.5681 7.06432 11.9281 7.83065 9.99486 9.89416C8.05535 11.9644 6.9616 15.1957 7.20104 19.9841L8.86267 19.901C8.63704 15.3887 9.67997 12.6637 11.209 11.0316C12.7442 9.39293 14.9046 8.71121 17.216 8.57625C19.5267 8.44133 21.8954 8.86034 23.712 9.32685C25.5214 9.7915 26.7375 10.2912 26.7302 10.2882L27.3623 8.74926ZM7.20104 19.9841C7.2544 21.0511 7.64843 23.4802 8.2935 26.3593C8.94252 29.256 9.8601 32.6727 10.9831 35.7274C12.0918 38.7432 13.4483 41.5439 15.0316 43.0828C15.8348 43.8634 16.797 44.4163 17.8925 44.3699C18.9931 44.3231 19.9928 43.6819 20.8911 42.6021L19.6121 41.5381C18.8756 42.4234 18.2735 42.6885 17.8219 42.7076C17.3652 42.727 16.8246 42.5054 16.1912 41.8897C14.9012 40.636 13.6487 38.1566 12.5446 35.1533C11.4548 32.1889 10.556 28.8476 9.91695 25.9955C9.27399 23.1259 8.90841 20.8156 8.86267 19.901L7.20104 19.9841ZM20.8912 42.6019C22.0778 41.1749 23.2566 39.8318 24.1395 38.8447C24.5807 38.3514 24.9475 37.9477 25.2037 37.6675C25.3318 37.5275 25.4322 37.4183 25.5004 37.3444C25.5345 37.3074 25.5606 37.2793 25.578 37.2605C25.5867 37.251 25.5933 37.244 25.5976 37.2393C25.5998 37.2369 25.6014 37.2352 25.6025 37.2341C25.603 37.2335 25.6034 37.2331 25.6036 37.2328C25.6038 37.2327 25.6038 37.2326 25.6039 37.2326C25.6039 37.2325 25.6039 37.2325 25.6039 37.2325C25.6039 37.2325 25.6039 37.2325 24.9949 36.666C24.3858 36.0994 24.3858 36.0994 24.3857 36.0994C24.3857 36.0995 24.3857 36.0995 24.3856 36.0996C24.3855 36.0997 24.3854 36.0998 24.3852 36.1C24.3849 36.1003 24.3844 36.1008 24.3838 36.1015C24.3826 36.1028 24.3808 36.1048 24.3784 36.1073C24.3737 36.1124 24.3668 36.1199 24.3577 36.1297C24.3395 36.1493 24.3126 36.1783 24.2777 36.2161C24.2079 36.2918 24.1058 36.4027 23.976 36.5448C23.7162 36.8288 23.3453 37.2371 22.8995 37.7355C22.0083 38.7319 20.8154 40.0909 19.612 41.5382L20.8912 42.6019ZM31.558 40.1779C31.5534 40.3425 31.5491 40.5071 31.545 40.6717L33.2082 40.7124C33.2122 40.5497 33.2165 40.387 33.221 40.2244L31.558 40.1779ZM31.545 40.6717C31.4715 43.6778 31.4936 46.6758 31.6083 49.1127C31.6656 50.3304 31.7465 51.4172 31.8518 52.2992C31.9538 53.1541 32.0871 53.8976 32.2782 54.3756L33.823 53.758C33.7215 53.5041 33.6059 52.9575 33.5038 52.1021C33.4049 51.2737 33.3265 50.2298 33.2702 49.0345C33.1577 46.6453 33.1354 43.6878 33.2082 40.7124L31.545 40.6717ZM32.2782 54.3758C32.5801 55.1305 33.1145 56.4162 34.2382 57.3627C35.4124 58.3518 37.1129 58.8806 39.5412 58.3604L39.1927 56.7336C37.1937 57.1619 36.0368 56.7025 35.31 56.0903C34.5328 55.4355 34.1226 54.5069 33.8229 53.7578L32.2782 54.3758ZM39.5414 58.3604C41.4668 57.9476 42.9133 57.3155 43.9488 56.2393C44.9858 55.1613 45.5105 53.7417 45.8153 51.9737L44.1758 51.691C43.8966 53.3101 43.4563 54.3514 42.7498 55.0858C42.0417 55.8218 40.9659 56.3535 39.1926 56.7337L39.5414 58.3604ZM45.8153 51.9738C46.2499 49.4557 47.0824 42.5082 47.1907 41.0635L45.5317 40.939C45.4273 42.3304 44.6014 49.2249 44.1758 51.6909L45.8153 51.9738ZM48.8384 37.435C48.0232 37.6006 48.0234 37.6018 48.0237 37.6029C48.0237 37.6034 48.024 37.6046 48.0242 37.6054C48.0245 37.607 48.0249 37.6087 48.0252 37.6104C48.026 37.6139 48.0268 37.6174 48.0276 37.6212C48.0293 37.6286 48.0312 37.6366 48.0334 37.6452C48.0377 37.6624 48.0431 37.6817 48.0497 37.7031C48.0628 37.7459 48.0809 37.7967 48.1056 37.8538C48.1552 37.9683 48.2309 38.1066 48.3451 38.2543C48.5775 38.5546 48.9467 38.8643 49.5151 39.0996C50.6279 39.5603 52.4909 39.7333 55.6782 39.0754L55.3419 37.4461C52.2869 38.0766 50.8141 37.8368 50.1516 37.5625C49.8324 37.4303 49.7041 37.292 49.6609 37.2362C49.6374 37.2057 49.6307 37.1889 49.6324 37.1929C49.6332 37.1947 49.636 37.2013 49.6398 37.2138C49.6417 37.22 49.6439 37.2276 49.6462 37.2369C49.6474 37.2415 49.6486 37.2465 49.6498 37.2519C49.6504 37.2546 49.6511 37.2574 49.6517 37.2604C49.652 37.2618 49.6523 37.2633 49.6526 37.2648C49.6528 37.2656 49.653 37.2667 49.6531 37.2671C49.6534 37.2683 49.6536 37.2695 48.8384 37.435ZM55.6783 39.0754C55.984 39.0123 56.1867 38.9964 56.3082 39.0006C56.4482 39.0054 56.3935 39.0332 56.287 38.9523C56.1218 38.8265 56.0701 38.629 56.0823 38.5023C56.0894 38.4284 56.1105 38.4368 56.0402 38.5428C55.9075 38.7431 55.6123 39.0479 55.1462 39.3953C54.6924 39.7336 54.1189 40.0806 53.4749 40.3797L54.1756 41.8886C54.9185 41.5436 55.591 41.1388 56.1405 40.7293C56.6777 40.3288 57.1432 39.8899 57.4268 39.4622C57.5647 39.2543 57.7079 38.9777 57.7383 38.6617C57.7738 38.2929 57.6467 37.8962 57.2945 37.6283C57.0011 37.405 56.6479 37.3475 56.3652 37.3378C56.064 37.3275 55.7199 37.368 55.3418 37.4461L55.6783 39.0754ZM53.4751 40.3796C52.3776 40.889 50.8829 41.4192 49.5714 41.544C48.2126 41.6732 47.4337 41.3541 47.1192 40.6585L45.6032 41.344C46.3838 43.0702 48.1986 43.3458 49.729 43.2002C51.3066 43.0501 52.9964 42.4359 54.1754 41.8887L53.4751 40.3796ZM47.1917 40.954C47.1436 40.1091 47.2769 39.6435 47.4174 39.386C47.5485 39.1457 47.7246 39.0147 47.9394 38.918C48.0545 38.8662 48.1789 38.8253 48.3217 38.7839C48.4394 38.7498 48.637 38.6977 48.786 38.6453C48.927 38.5956 49.1974 38.4914 49.4056 38.2566C49.672 37.9562 49.7236 37.5846 49.6505 37.2549L48.0263 37.6151C48.0055 37.5214 48.0122 37.3205 48.1608 37.1528C48.2513 37.0508 48.3311 37.0416 48.233 37.0762C48.1427 37.108 48.0526 37.1297 47.8583 37.186C47.6891 37.2351 47.4774 37.3015 47.2563 37.401C46.7988 37.607 46.3029 37.9551 45.957 38.5892C45.6204 39.2061 45.4715 40.01 45.5307 41.0486L47.1917 40.954ZM47.2627 33.3531C47.1453 33.0684 46.8812 32.5957 46.589 32.0716C46.2812 31.5196 45.9038 30.8448 45.5118 30.0926C44.7227 28.5783 43.9029 26.8027 43.4972 25.176C43.0781 23.4959 43.1718 22.2658 43.7946 21.5532C44.4052 20.8546 45.8329 20.3109 49.0038 20.8186L49.2669 19.1759C45.9798 18.6495 43.7545 19.071 42.5419 20.4584C41.3414 21.8319 41.4415 23.8089 41.8829 25.5786C42.3377 27.4018 43.2325 29.3187 44.0364 30.8615C44.441 31.6378 44.8297 32.3327 45.1358 32.8817C45.4575 33.4587 45.6549 33.8183 45.7248 33.9876L47.2627 33.3531ZM49.3039 20.8119C49.821 20.7048 49.9518 20.2435 49.9734 20.1574C50.0091 20.0153 50.0073 19.8844 50.0037 19.8091C49.9958 19.6421 49.961 19.453 49.9167 19.2674C49.8251 18.8835 49.6585 18.3729 49.4166 17.7834C48.9312 16.6008 48.1181 15.0409 46.9153 13.465C44.506 10.3082 40.4925 7.04175 34.4084 6.70718L34.317 8.36838C39.7821 8.6689 43.387 11.5842 45.5927 14.4743C46.6975 15.9219 47.4411 17.3518 47.8775 18.4151C48.0964 18.9486 48.232 19.375 48.2984 19.6533C48.3147 19.7216 48.3258 19.7768 48.3329 19.8193C48.3364 19.8403 48.3387 19.8568 48.3401 19.8691C48.3408 19.8751 48.3413 19.8797 48.3415 19.883C48.3418 19.8863 48.3419 19.8879 48.3419 19.8879C48.3419 19.8879 48.3419 19.8873 48.3418 19.8863C48.3418 19.8853 48.3418 19.8837 48.3418 19.8815C48.3418 19.8774 48.3419 19.8703 48.3424 19.8606C48.3434 19.8444 48.3465 19.8051 48.3598 19.7523C48.3688 19.7163 48.4787 19.2837 48.9668 19.1827L49.3039 20.8119ZM33.6926 6.68173C30.6688 6.63214 28.3281 7.48617 26.5398 8.85886L27.5528 10.1786C29.0247 9.04881 30.9933 8.30139 33.6654 8.34521L33.6926 6.68173ZM26.5398 8.85886C23.6673 11.0636 22.3432 14.5074 21.7237 17.288C21.411 18.6918 21.2701 19.9613 21.2071 20.8802C21.1755 21.3404 21.1634 21.7145 21.1592 21.9759C21.1571 22.1067 21.1569 22.2093 21.1574 22.2806C21.1576 22.3163 21.158 22.3441 21.1583 22.3636C21.1584 22.3734 21.1586 22.3811 21.1587 22.3867C21.1588 22.3895 21.1588 22.3918 21.1589 22.3936C21.1589 22.3944 21.1589 22.3952 21.1589 22.3958C21.1589 22.3961 21.1589 22.3964 21.1589 22.3966C21.159 22.3969 21.159 22.3972 21.9905 22.3753C22.8221 22.3534 22.8221 22.3536 22.8221 22.3538C22.8221 22.3538 22.8221 22.354 22.8221 22.354C22.8221 22.3541 22.8221 22.354 22.8221 22.3538C22.8221 22.3534 22.8221 22.3525 22.822 22.351C22.822 22.3482 22.8219 22.3432 22.8218 22.3362C22.8215 22.3222 22.8212 22.3001 22.8211 22.2703C22.8207 22.2108 22.8208 22.1204 22.8226 22.0027C22.8264 21.7671 22.8375 21.4221 22.8669 20.9941C22.9257 20.1365 23.0573 18.9528 23.3476 17.6498C23.9342 15.0166 25.138 12.0321 27.5528 10.1786L26.5398 8.85886ZM28.4033 38.1683C27.9613 38.662 27.6574 39.0601 27.4221 39.3567C27.1803 39.6615 27.0299 39.8337 26.8572 39.9713C26.5237 40.237 25.9933 40.4653 24.2982 40.8143L24.6337 42.4438C26.3064 42.0994 27.2121 41.8158 27.894 41.2724C28.229 41.0054 28.4811 40.6988 28.7255 40.3906C28.9764 40.0743 29.2424 39.7253 29.6428 39.278L28.4033 38.1683ZM24.298 40.8144C23.4202 40.9953 22.7381 41.2365 22.3035 41.5909C22.0716 41.78 21.8615 42.0414 21.7821 42.3859C21.7007 42.7389 21.7842 43.0589 21.9165 43.3043C22.154 43.7447 22.6002 44.0498 22.9528 44.2427C23.3376 44.4533 23.7748 44.6175 24.1653 44.7151L24.5688 43.1011C24.306 43.0354 24.0029 42.9208 23.7514 42.7832C23.6266 42.715 23.5289 42.6488 23.4599 42.591C23.3865 42.5295 23.3733 42.5006 23.3809 42.5147C23.3943 42.5395 23.4324 42.6331 23.4033 42.7595C23.3761 42.8774 23.3157 42.9122 23.3549 42.8802C23.3972 42.8458 23.5046 42.7766 23.725 42.693C23.9407 42.6111 24.237 42.5256 24.6339 42.4438L24.298 40.8144ZM24.1651 44.7151C25.8119 45.1271 29.9724 45.7996 32.7708 41.8812L31.417 40.9143C29.2618 43.9321 26.0911 43.482 24.569 43.1011L24.1651 44.7151ZM31.3717 37.459C31.1305 37.3591 30.6643 37.1586 30.1007 37.2078C29.4986 37.2604 28.9333 37.5751 28.4028 38.1689L29.6434 39.2774C29.9731 38.9084 30.1728 38.8716 30.2455 38.8652C30.3569 38.8555 30.4756 38.8886 30.735 38.9961L31.3717 37.459ZM30.6277 35.0163C30.8343 34.4602 31.087 33.9573 31.3938 33.2427C31.6869 32.5601 31.986 31.7745 32.2035 30.8158C32.6407 28.8893 32.7289 26.3527 31.9165 22.5956L30.2903 22.9472C31.0633 26.5221 30.9533 28.8074 30.5811 30.4476C30.394 31.2723 30.1356 31.9562 29.8651 32.5863C29.6082 33.1844 29.291 33.8372 29.0682 34.4368L30.6277 35.0163ZM31.9164 22.5955C31.5678 20.9834 30.6771 19.986 29.4813 19.5243C28.3494 19.0872 27.0569 19.1735 25.9187 19.436C24.7649 19.7022 23.6637 20.174 22.8456 20.6295C22.4373 20.8569 22.0787 21.0917 21.8102 21.3102C21.6781 21.4176 21.5461 21.5385 21.439 21.6683C21.3671 21.7554 21.1611 22.0123 21.1587 22.3697L22.8224 22.3809C22.8206 22.6457 22.6771 22.7819 22.7224 22.727C22.7326 22.7147 22.7725 22.6719 22.8599 22.6008C23.0304 22.4622 23.3011 22.2801 23.655 22.0831C24.3614 21.6897 25.3166 21.2823 26.2927 21.0572C27.2843 20.8284 28.1952 20.8111 28.882 21.0763C29.5048 21.3168 30.0481 21.8275 30.2903 22.9472L31.9164 22.5955ZM21.1587 22.3698C21.1529 23.2552 21.5158 26.0809 21.0341 29.5254L22.6818 29.7559C23.1819 26.1796 22.8185 22.9765 22.8224 22.3807L21.1587 22.3698ZM48.3047 20.0421C48.3535 20.9464 48.2576 21.7116 48.1308 22.5493C48.0049 23.381 47.8446 24.303 47.809 25.4199L49.4718 25.4729C49.5036 24.477 49.6443 23.6668 49.7758 22.7983C49.9064 21.9358 50.0243 21.0329 49.966 19.9524L48.3047 20.0421ZM47.809 25.4194C47.7821 26.2482 47.8574 27.0962 47.9388 27.9155C48.0219 28.7507 48.1112 29.5568 48.1332 30.3762C48.1766 31.9896 47.9543 33.5681 46.9053 35.1346L48.2878 36.0603C49.5954 34.1074 49.8451 32.1459 49.7963 30.3315C49.7723 29.4369 49.6745 28.5571 49.5944 27.751C49.5127 26.9289 49.4489 26.1802 49.4718 25.4734L47.809 25.4194ZM56.5054 11.7679C51.4547 5.31465 44.3369 6.02544 37.7413 7.20615L38.0345 8.84382C44.671 7.65578 50.8057 7.18469 55.1953 12.7933L56.5054 11.7679ZM21.0341 29.5254C20.5733 32.821 22.1339 35.7909 24.54 37.3624L25.4497 35.9695C23.5576 34.7337 22.3144 32.3831 22.6818 29.7558L21.0341 29.5254ZM24.54 37.3624C25.908 38.2559 27.5243 38.5252 29.1138 38.3714L28.9535 36.7154C27.6485 36.8417 26.432 36.611 25.4497 35.9695L24.54 37.3624ZM29.8453 38.597C29.8043 38.3298 29.8075 38.0199 29.8576 37.6574L28.2096 37.4293C28.1439 37.9044 28.1292 38.3822 28.2008 38.8493L29.8453 38.597ZM29.8576 37.6574C29.9606 36.9137 30.2456 36.046 30.6278 35.0159L29.068 34.4372C28.6864 35.4658 28.3402 36.4864 28.2096 37.4293L29.8576 37.6574ZM49.6504 37.2542C49.5504 36.8051 49.2889 36.423 49.0603 36.1201C48.9404 35.961 48.8046 35.7929 48.6741 35.6297C48.5402 35.4621 48.4037 35.2897 48.2651 35.1025L46.928 36.0924C47.0858 36.3056 47.2382 36.4979 47.3746 36.6684C47.5144 36.8434 47.6302 36.9868 47.7321 37.1219C47.9473 37.4072 48.0103 37.5435 48.0264 37.6158L49.6504 37.2542ZM48.2651 35.1025C47.919 34.635 47.5612 34.0768 47.2627 33.3532L45.7247 33.9876C46.0898 34.8726 46.5268 35.5505 46.928 36.0924L48.2651 35.1025ZM32.7708 41.8813C33.0066 41.5511 33.1421 41.1858 33.1988 40.8189L31.5545 40.5651C31.5338 40.6996 31.4877 40.8153 31.417 40.9143L32.7708 41.8813ZM33.1988 40.8189C33.2349 40.5847 33.2389 40.3509 33.2178 40.1242L31.5612 40.2781C31.5708 40.3814 31.568 40.4777 31.5545 40.5651L33.1988 40.8189ZM33.2178 40.1242C33.116 39.0281 32.3948 37.8831 31.3719 37.4591L30.7348 38.996C31.0929 39.1444 31.5063 39.6869 31.5612 40.2781L33.2178 40.1242Z" fill="white"/>
<path fill-rule="evenodd" clip-rule="evenodd" d="M46.7719 21.4691C46.8583 21.5288 46.9317 21.6145 46.9477 21.7291C46.9626 21.836 46.9215 21.9577 46.8659 22.0651C46.8071 22.1786 46.7197 22.3001 46.6112 22.4141C46.3956 22.6405 46.0814 22.8532 45.7156 22.904M45.7156 22.904C45.3481 22.9551 45.0126 22.8312 44.7676 22.6653C44.6447 22.582 44.5412 22.486 44.4646 22.3909C44.3909 22.2993 44.3317 22.1955 44.3177 22.0961C44.3021 21.9816 44.3493 21.8784 44.4162 21.7973C44.483 21.7164 44.5782 21.6449 44.6878 21.5837C44.9079 21.4607 45.2124 21.3642 45.5501 21.3171C45.8878 21.2701 46.2072 21.2797 46.4524 21.3378C46.5745 21.3668 46.6856 21.4094 46.7719 21.4691" fill="white"/>
<path fill-rule="evenodd" clip-rule="evenodd" d="M27.135 22.1049C27.0486 22.1646 26.9751 22.2504 26.9591 22.3649C26.9442 22.4719 26.9853 22.5936 27.041 22.701C27.0997 22.8145 27.1872 22.9359 27.2957 23.0499C27.5113 23.2764 27.8254 23.4891 28.1912 23.5398M28.1912 23.5398C28.5588 23.591 28.8943 23.467 29.1392 23.3011C29.2621 23.2179 29.3657 23.1219 29.4423 23.0268C29.516 22.9352 29.5752 22.8313 29.5892 22.732C29.6047 22.6175 29.5575 22.5143 29.4907 22.4332C29.4239 22.3522 29.3287 22.2808 29.2191 22.2195C28.999 22.0966 28.6944 22.0001 28.3568 21.953C28.0191 21.906 27.6997 21.9156 27.4545 21.9737C27.3323 22.0026 27.2213 22.0453 27.135 22.1049" fill="white"/>
</svg>
