<?xml version="1.0" standalone="no"?>
<!DOCTYPE svg PUBLIC "-//W3C//DTD SVG 20010904//EN"
 "http://www.w3.org/TR/2001/REC-SVG-20010904/DTD/svg10.dtd">
<svg version="1.0" xmlns="http://www.w3.org/2000/svg"
 width="100%" height="100%" viewBox="0 0 400.000000 400.000000"
 preserveAspectRatio="xMidYMid meet">

<g transform="translate(0.000000,400.000000) scale(0.100000,-0.100000)"
fill="#000000" stroke="none">
<path d="M1940 3321 c-284 -63 -514 -210 -683 -436 -72 -97 -149 -251 -179
-362 l-23 -82 -50 -7 c-114 -15 -233 -68 -342 -151 -287 -217 -380 -612 -219
-931 l36 -71 -237 -168 -236 -168 274 -3 c151 -1 873 -1 1604 0 l1330 3 80 23
c193 54 355 160 476 310 67 83 149 244 174 342 26 101 31 289 10 391 -73 361
-348 637 -713 715 -75 16 -85 21 -99 48 -61 119 -225 300 -345 379 -89 58
-234 124 -338 153 -132 36 -391 44 -520 15z m829 -848 c5 -21 22 -91 37 -155
15 -65 31 -118 35 -118 7 0 226 116 275 146 12 7 27 32 34 58 11 40 10 49 -4
70 -9 14 -16 28 -16 31 0 3 68 5 150 5 113 0 150 -3 150 -12 0 -7 -72 -263
-159 -568 l-158 -555 25 -27 26 -28 -197 0 -197 0 0 34 c0 19 -37 154 -83 300
l-83 266 -31 -28 -31 -27 79 -250 c43 -137 81 -262 84 -277 l7 -28 -160 0
-159 0 -29 118 -29 117 -59 0 -60 0 -77 -87 c-77 -87 -175 -206 -215 -262
l-21 -30 -49 36 c-27 20 -66 54 -86 75 l-37 38 14 40 c22 62 19 69 -18 41 -18
-14 -60 -38 -92 -53 l-60 -28 -287 -3 c-159 -2 -288 -1 -288 3 0 3 7 16 16 30
17 26 39 117 174 713 51 225 88 412 85 423 -7 20 -3 20 257 17 262 -3 263 -3
321 -30 32 -15 79 -49 106 -77 l49 -50 12 58 c7 32 9 68 5 80 -6 21 -5 21 168
21 168 0 175 -1 170 -19 -4 -16 130 -476 142 -489 3 -3 26 8 53 26 10 7 -2 54
-53 218 -36 115 -72 221 -80 236 -8 14 -15 29 -15 32 0 3 79 6 175 6 l174 0
10 -37z m-1705 -387 c64 -27 85 -90 45 -140 -11 -14 -16 -26 -11 -26 5 0 7
-11 4 -25 -2 -14 -6 -25 -9 -25 -2 0 -50 11 -106 26 -189 47 -175 41 -169 70
4 23 8 25 39 19 19 -3 40 -8 46 -11 9 -3 12 7 10 33 -6 76 67 114 151 79z
m-66 -220 c1 -2 -5 -34 -13 -71 -17 -71 -14 -86 12 -69 30 19 39 42 25 64 -14
24 -16 56 -2 65 21 13 50 -34 50 -81 0 -57 -40 -104 -90 -104 -132 0 -178 151
-60 199 21 9 68 6 78 -3z m-65 -237 c45 -28 84 -53 86 -55 2 -1 1 -15 -3 -29
-6 -24 -10 -25 -74 -25 l-67 -1 58 -30 c46 -23 57 -34 57 -54 0 -13 -3 -26 -7
-28 -5 -3 -57 -8 -117 -12 l-108 -7 7 23 c10 32 6 30 75 36 l61 6 -48 28 c-26
16 -51 30 -55 31 -4 2 -5 13 -2 25 6 20 14 22 78 25 l71 3 -63 33 c-46 24 -62
37 -58 48 3 9 6 20 6 25 0 17 21 9 103 -42z"/>
<path d="M1557 2313 c-5 -9 -207 -806 -207 -818 0 -11 132 -4 163 8 55 23 133
120 187 231 67 138 84 207 84 341 1 94 -2 116 -21 150 -37 69 -65 89 -137 93
-35 2 -66 0 -69 -5z"/>
<path d="M2988 2226 c-69 -50 -129 -93 -131 -96 -3 -3 16 -95 42 -205 l48
-200 26 85 c80 266 148 502 145 505 -2 1 -60 -39 -130 -89z"/>
<path d="M2131 1912 c-29 -87 -56 -163 -58 -169 -4 -9 9 -13 46 -13 44 0 59 5
101 38 27 20 49 42 49 47 1 10 -76 245 -81 251 -2 1 -27 -68 -57 -154z"/>
<path d="M972 2034 c-26 -18 -28 -45 -4 -67 29 -27 66 -30 92 -9 29 24 22 63
-15 80 -34 16 -46 15 -73 -4z"/>
<path d="M922 1815 c-25 -18 -29 -57 -8 -75 12 -9 17 -4 26 30 14 53 10 64
-18 45z"/>
</g>
</svg>
