<svg width="100%" height="100%" viewBox="0 0 64 64" fill="none" xmlns="http://www.w3.org/2000/svg">
<path fill-rule="evenodd" clip-rule="evenodd" d="M55.5818 47.5404C52.5355 47.455 50.1723 47.7692 48.1915 48.6078C47.6212 48.8383 46.706 48.8383 46.6308 49.5607C46.9356 49.8639 46.9723 50.36 47.2396 50.7802C47.6963 51.5427 48.4972 52.57 49.2203 53.1028L51.6578 54.8559C53.1434 55.7697 54.8193 56.3034 56.2665 57.2179C57.1049 57.7516 57.9424 58.4373 58.7808 59.0094C59.2077 59.3143 59.4664 59.8104 60 60V59.8847C59.7336 59.5432 59.6568 59.0479 59.3913 58.6653L58.2472 57.5612C57.1433 56.0754 55.7713 54.7791 54.2857 53.7134C53.0665 52.8748 50.4011 51.7323 49.9059 50.3233L49.8308 50.2379C50.6675 50.1525 51.6578 49.8562 52.4587 49.6274C53.7547 49.2858 54.9346 49.3609 56.2665 49.0185L58.0961 48.4848V48.1432C57.4105 47.4575 56.9153 46.543 56.1922 45.8957C54.2499 44.2194 52.1154 42.5807 49.9059 41.2093C48.7251 40.4476 47.2012 39.9515 45.9444 39.3051C45.4859 39.0762 44.7252 38.9618 44.4589 38.581C43.7716 37.7441 43.3917 36.6383 42.8965 35.6469L39.7734 29.0178C39.0878 27.532 38.6678 26.0462 37.8311 24.6748C33.9071 18.1977 29.64 14.2739 23.0882 10.4253C21.6795 9.62515 20.0035 9.28102 18.2217 8.86259L15.365 8.70888C14.7546 8.44246 14.1458 7.71833 13.6122 7.37505C11.4411 6.00364 5.84123 3.03198 4.24042 6.94809C3.21163 9.42448 5.76439 11.8624 6.63096 13.1203C7.27983 13.9964 8.11652 14.987 8.57499 15.9775C8.83112 16.6248 8.9165 17.3113 9.18373 17.997C9.79247 19.6733 10.3645 21.5408 11.1645 23.1035C11.5914 23.9037 12.0396 24.7431 12.5732 25.4664C12.878 25.8933 13.4116 26.0761 13.5251 26.7618C12.9915 27.5243 12.9548 28.666 12.65 29.6199C11.278 33.9253 11.8116 39.259 13.754 42.4288C14.3644 43.3809 15.803 45.4773 17.7547 44.6763C19.4691 43.9906 19.0866 41.819 19.5818 39.9139C19.697 39.4571 19.6202 39.1522 19.8481 38.8465V38.9319L21.4105 42.094C22.5913 43.9607 24.6489 45.9042 26.3624 47.2005C27.2759 47.8862 27.9999 49.068 29.1423 49.4865V49.3712H29.0671C28.8383 49.0296 28.4951 48.8759 28.1903 48.6095C27.5047 47.9238 26.7432 47.0852 26.2096 46.3235C24.6105 44.1904 23.2017 41.8276 21.9441 39.3896C21.3337 38.2086 20.8001 36.9132 20.3066 35.7323C20.0761 35.2745 20.0761 34.588 19.6962 34.3609C19.1242 35.1977 18.2875 35.9235 17.8666 36.9517C17.1426 38.5895 17.0674 40.609 16.801 42.7046C16.6474 42.743 16.7157 42.7046 16.6474 42.79C15.4299 42.486 15.0098 41.2273 14.5531 40.1616C13.4107 37.4563 13.2195 33.1133 14.2099 29.9887C14.4762 29.1886 15.6203 26.6738 15.1635 25.9121C14.933 25.188 14.1731 24.7695 13.7531 24.1974C13.2579 23.4733 12.726 22.5596 12.3828 21.7595C11.4693 19.6246 11.0125 17.2635 10.0213 15.1296C9.5628 14.139 8.76368 13.11 8.11567 12.1963C7.39168 11.1673 6.5934 10.4432 6.02138 9.22466C5.83099 8.79769 5.56461 8.11968 5.8694 7.66197C5.94454 7.35712 6.09821 7.23501 6.4013 7.16669C6.89649 6.73973 8.30691 7.28112 8.80209 7.50826C10.2108 8.0804 11.3916 8.61325 12.5723 9.41252C13.1059 9.79337 13.678 10.5175 14.3635 10.7088H15.1644C16.3835 10.9752 17.7539 10.7942 18.8953 11.1357C20.9145 11.7847 22.7424 12.736 24.3817 13.7658C29.3711 16.9279 33.4862 21.4239 36.2661 26.7968C36.7229 27.6729 36.9133 28.473 37.3333 29.3876C38.1341 31.2551 39.1245 33.1594 39.9228 34.9893C40.7236 36.78 41.4852 38.61 42.6275 40.0958C43.1996 40.896 45.4842 41.3144 46.5122 41.7337C47.2746 42.0752 48.4545 42.3826 49.1418 42.8011C50.4361 43.6012 51.7313 44.5158 52.9496 45.3919C53.5583 45.8479 55.4639 46.8009 55.5775 47.5609L55.5818 47.5404ZM16.7353 14.4319C16.209 14.4272 15.6844 14.4913 15.1746 14.6223V14.7077H15.2498C15.5545 15.3174 16.0882 15.7367 16.4689 16.2704L17.3458 18.0995L17.4209 18.0141C17.9545 17.6333 18.2217 17.0236 18.2217 16.1099C17.9929 15.8434 17.9553 15.5762 17.7649 15.3097C17.5361 14.9289 17.041 14.7376 16.7353 14.4336V14.4319Z" fill="#00678C"/>
</svg>
